<?xml version="1.0" encoding="iso-8859-1"?>
<!-- Generator: Adobe Illustrator 19.0.0, SVG Export Plug-In . SVG Version: 6.00 Build 0)  -->
<svg version="1.1" id="Layer_1" xmlns="http://www.w3.org/2000/svg" xmlns:xlink="http://www.w3.org/1999/xlink" x="0px" y="0px"
	 viewBox="0 0 512 512" style="enable-background:new 0 0 512 512;" xml:space="preserve">
<polygon style="fill:#57A4FF;" points="512,300.522 0,300.522 0,422.957 77.913,422.957 77.913,512 434.087,512 434.087,422.957 
	512,422.957 "/>
<polygon style="fill:#FFDA44;" points="367.3,33.391 367.3,0 178.083,0 178.083,33.391 144.691,33.391 144.691,66.783 111.3,66.783 
	111.3,100.174 77.913,100.177 77.913,267.134 111.3,267.134 111.3,300.522 400.691,300.522 400.691,233.739 267.126,233.739 
	267.126,200.348 233.739,200.348 233.739,133.565 267.126,133.565 267.126,100.174 400.691,100.174 400.691,66.783 400.691,33.391 
	"/>
<rect x="144.696" y="33.391" width="33.391" height="33.391"/>
<rect x="111.304" y="66.783" width="33.391" height="33.391"/>
<rect x="178.087" width="189.217" height="33.391"/>
<rect x="77.913" y="100.174" width="33.391" height="166.957"/>
<polygon points="267.13,66.783 267.13,100.174 367.304,100.174 400.696,100.174 400.696,66.783 400.696,33.391 367.304,33.391 
	367.304,66.783 "/>
<rect x="233.739" y="100.174" width="33.391" height="33.391"/>
<rect x="233.739" y="200.348" width="33.391" height="33.391"/>
<rect x="200.348" y="133.565" width="33.391" height="66.783"/>
<polygon points="400.696,300.522 400.696,267.13 400.696,233.739 367.304,233.739 267.13,233.739 267.13,267.13 367.304,267.13 
	367.304,300.522 144.696,300.522 144.696,267.13 111.304,267.13 111.304,300.522 0,300.522 0,333.913 512,333.913 512,300.522 "/>
<g>
	<rect x="77.913" y="478.609" style="fill:#9BFBFF;" width="356.174" height="33.391"/>
	<rect x="33.391" y="389.565" style="fill:#9BFBFF;" width="278.261" height="33.391"/>
	<rect x="378.435" y="389.565" style="fill:#9BFBFF;" width="100.174" height="33.391"/>
</g>
<g>
</g>
<g>
</g>
<g>
</g>
<g>
</g>
<g>
</g>
<g>
</g>
<g>
</g>
<g>
</g>
<g>
</g>
<g>
</g>
<g>
</g>
<g>
</g>
<g>
</g>
<g>
</g>
<g>
</g>
</svg>
