<?xml version="1.0" encoding="iso-8859-1"?>
<!-- Generator: Adobe Illustrator 19.0.0, SVG Export Plug-In . SVG Version: 6.00 Build 0)  -->
<svg version="1.1" id="Layer_1" xmlns="http://www.w3.org/2000/svg" xmlns:xlink="http://www.w3.org/1999/xlink" x="0px" y="0px"
	 viewBox="0 0 512 512" style="enable-background:new 0 0 512 512;" xml:space="preserve">
<g>
	<g>
		<rect x="244.87" y="467.479" width="33.391" height="44.521"/>
	</g>
</g>
<g>
	<g>
		<rect x="244.87" y="389.566" width="33.391" height="44.521"/>
	</g>
</g>
<g>
	<g>
		<rect x="200.348" y="434.088" width="44.522" height="33.391"/>
	</g>
</g>
<g>
	<g>
		<rect x="278.261" y="434.088" width="44.522" height="33.391"/>
	</g>
</g>
<g>
	<g>
		<rect x="44.522" y="434.088" width="33.391" height="44.521"/>
	</g>
</g>
<g>
	<g>
		<rect x="44.522" y="356.174" width="33.391" height="44.521"/>
	</g>
</g>
<g>
	<g>
		<rect y="400.696" width="44.522" height="33.391"/>
	</g>
</g>
<g>
	<g>
		<rect x="77.913" y="400.696" width="44.522" height="33.391"/>
	</g>
</g>
<g>
	<g>
		<rect x="434.087" y="434.088" width="33.391" height="44.521"/>
	</g>
</g>
<g>
	<g>
		<rect x="434.087" y="356.174" width="33.391" height="44.521"/>
	</g>
</g>
<g>
	<g>
		<rect x="389.565" y="400.696" width="44.522" height="33.391"/>
	</g>
</g>
<g>
	<g>
		<rect x="467.478" y="400.696" width="44.522" height="33.391"/>
	</g>
</g>
<g>
	<g>
		<polygon points="278.261,133.566 278.261,100.174 389.565,100.174 389.565,33.392 356.174,33.392 356.174,0.001 189.217,0.001 
			189.217,33.392 155.826,33.392 155.826,66.783 122.435,66.783 122.435,100.177 89.049,100.177 89.049,256.003 122.435,256.003 
			122.435,289.392 155.826,289.392 155.826,322.783 189.217,322.783 189.217,356.174 356.174,356.174 356.174,322.783 
			389.565,322.783 389.565,256.001 278.261,256.001 278.261,222.609 244.875,222.609 244.875,133.566 		"/>
	</g>
</g>
<g>
</g>
<g>
</g>
<g>
</g>
<g>
</g>
<g>
</g>
<g>
</g>
<g>
</g>
<g>
</g>
<g>
</g>
<g>
</g>
<g>
</g>
<g>
</g>
<g>
</g>
<g>
</g>
<g>
</g>
</svg>
