<?xml version="1.0" encoding="iso-8859-1"?>
<!-- Generator: Adobe Illustrator 19.0.0, SVG Export Plug-In . SVG Version: 6.00 Build 0)  -->
<svg version="1.1" id="Layer_1" xmlns="http://www.w3.org/2000/svg" xmlns:xlink="http://www.w3.org/1999/xlink" x="0px" y="0px"
	 viewBox="0 0 155.883 155.883" style="enable-background:new 0 0 155.883 155.883;" xml:space="preserve">
<g>
	<g>
		<g>
			<path style="fill:#9CC105;" d="M99.942,42.037c0,0,22.043-5.238,29.978,15.449C129.921,57.486,108.439,62.678,99.942,42.037z"/>
		</g>
		<g>
			<path style="fill:#9CC105;" d="M107.233,56.896c0,0,17.633-14.225,6.128-33.162C113.36,23.734,96.109,37.545,107.233,56.896z"/>
		</g>
		<g>
			<path style="fill:#9CC105;" d="M103.188,49.594c0,0,8.266-18.279,27.059-12.633C130.246,36.961,122.248,54.824,103.188,49.594z"
				/>
		</g>
		<g>
			<path style="fill:#FF7390;" d="M75.748,63.273c-1.919-3.912,9.627-28.785,15.83-31.828c9.118-4.475,19.995,0.578,25.06,10.904
				l0.334,0.68c5.065,10.326,2.85,21.799-6.715,26.488C106.299,71.461,77.669,67.188,75.748,63.273z"/>
		</g>
		<path style="fill:#F62D8D;" d="M101.123,30.031c-3.188-0.498-6.465-0.096-9.544,1.414c-6.204,3.043-17.749,27.916-15.83,31.828
			c1.085,2.211,10.698,4.537,19.569,5.793L101.123,30.031z"/>
	</g>
	<g>
		<polygon style="fill:#ABD9D5;" points="90.853,155.883 34.105,155.883 25.635,47.883 99.323,47.883 		"/>
	</g>
	<g>
		<polygon style="fill:#CDE8E6;" points="60.829,155.883 34.105,155.883 25.635,47.883 60.829,47.883 		"/>
	</g>
	<g>
		<polygon style="fill:#DDF0EE;" points="84.924,141.883 40.034,141.883 31.564,47.883 93.394,47.883 		"/>
	</g>
	<g>
		<polygon style="fill:#FF7390;" points="33.47,68.607 40.034,141.449 84.924,141.449 91.487,68.607 		"/>
	</g>
	<g>
		<polygon style="fill:#F62D8D;" points="62.902,68.607 33.47,68.607 40.034,141.449 62.902,141.449 		"/>
	</g>
	<path style="fill:#FFFFFF;" d="M80.341,127.346c-0.215,2.33-2.278,4.043-4.606,3.828l0,0c-2.329-0.215-4.043-2.277-3.828-4.605
		l4.048-43.857c0.215-2.33,2.278-4.045,4.606-3.828l0,0c2.329,0.215,4.043,2.275,3.828,4.605L80.341,127.346z"/>
	<g>
		<g>
			<polygon style="fill:#F62D8D;" points="33.86,0 38.848,47.432 47.731,47.432 42.742,0 			"/>
		</g>
	</g>
</g>
<g>
</g>
<g>
</g>
<g>
</g>
<g>
</g>
<g>
</g>
<g>
</g>
<g>
</g>
<g>
</g>
<g>
</g>
<g>
</g>
<g>
</g>
<g>
</g>
<g>
</g>
<g>
</g>
<g>
</g>
</svg>
